<?xml version="1.0" standalone="no"?>
<!DOCTYPE svg PUBLIC "-//W3C//DTD SVG 20010904//EN"
 "http://www.w3.org/TR/2001/REC-SVG-20010904/DTD/svg10.dtd">
<svg version="1.0" xmlns="http://www.w3.org/2000/svg"
 width="80.000000pt" height="63.000000pt" viewBox="0 0 80.000000 63.000000"
 preserveAspectRatio="xMidYMid meet">

<g transform="translate(0.000000,63.000000) scale(0.100000,-0.100000)"
fill="#000000" stroke="none">
<path d="M112 609 c-66 -14 -110 -85 -99 -156 5 -30 83 -158 122 -201 9 -10
24 6 73 79 59 86 67 109 62 169 -6 76 -79 126 -158 109z m66 -85 c39 -27 25
-94 -24 -108 -29 -9 -74 28 -74 60 0 28 32 64 58 64 10 0 28 -7 40 -16z"/>
<path d="M410 505 c0 -8 70 -450 76 -478 3 -15 12 -27 20 -27 17 0 17 1 -2
122 -8 55 -13 105 -11 112 3 7 54 19 128 30 68 10 133 20 145 23 20 4 20 5 5
110 -10 62 -21 108 -29 111 -6 2 -73 -6 -149 -18 -136 -21 -152 -19 -153 13 0
7 -30 10 -30 2z m320 -61 c0 -23 -3 -25 -32 -22 -25 2 -34 8 -36 26 -3 19 1
22 32 22 32 0 36 -3 36 -26z m-94 -34 c26 0 33 -4 36 -22 2 -19 9 -23 34 -21
25 2 33 -2 37 -19 7 -25 -7 -38 -40 -38 -18 0 -23 6 -23 25 0 22 -4 24 -37 22
-33 -2 -38 1 -41 21 -3 19 -9 23 -35 20 -27 -3 -32 -7 -29 -27 5 -45 -62 -60
-70 -16 -6 31 -2 35 34 35 26 0 29 3 26 27 -3 24 1 29 27 33 25 5 32 2 39 -17
8 -17 18 -23 42 -23z m-24 -84 c5 -27 -7 -36 -48 -36 -33 0 -35 47 -1 53 42 8
45 7 49 -17z"/>
<path d="M247 293 c-16 -15 -4 -23 36 -23 48 0 67 -13 67 -47 0 -34 -34 -43
-156 -43 -98 0 -107 -2 -129 -25 -35 -34 -34 -93 1 -126 25 -23 32 -24 194
-27 166 -3 168 -3 163 17 -5 20 -12 21 -169 21 -151 0 -164 1 -174 19 -15 29
-12 56 8 74 15 14 40 17 125 17 119 0 152 10 166 52 20 57 -13 98 -79 98 -26
0 -50 -3 -53 -7z"/>
</g>
</svg>
