<?xml version="1.0" standalone="no"?>
<!DOCTYPE svg PUBLIC "-//W3C//DTD SVG 20010904//EN"
 "http://www.w3.org/TR/2001/REC-SVG-20010904/DTD/svg10.dtd">
<svg version="1.0" xmlns="http://www.w3.org/2000/svg"
 width="52.000000pt" height="52.000000pt" viewBox="0 0 52.000000 52.000000"
 preserveAspectRatio="xMidYMid meet">

<g transform="translate(0.000000,52.000000) scale(0.100000,-0.100000)"
fill="#000000" stroke="none">
<path d="M195 499 c-166 -40 -243 -243 -147 -384 126 -182 406 -126 452 91 17
81 -15 182 -76 236 -58 50 -155 75 -229 57z m167 -78 c62 -43 83 -85 83 -166
0 -81 -21 -123 -83 -166 -29 -20 -48 -24 -107 -24 -81 0 -123 21 -165 82 -28
41 -38 124 -21 175 14 41 64 95 106 115 47 21 145 12 187 -16z"/>
<path d="M216 380 c-122 -38 -119 -217 4 -250 99 -27 187 62 160 162 -10 36
-59 88 -83 88 -7 0 -21 2 -32 5 -11 2 -33 0 -49 -5z"/>
</g>
</svg>
