<?xml version="1.0" standalone="no"?>
<!DOCTYPE svg PUBLIC "-//W3C//DTD SVG 20010904//EN"
 "http://www.w3.org/TR/2001/REC-SVG-20010904/DTD/svg10.dtd">
<svg version="1.0" xmlns="http://www.w3.org/2000/svg"
 width="66.000000pt" height="66.000000pt" viewBox="0 0 66.000000 66.000000"
 preserveAspectRatio="xMidYMid meet">

<g transform="translate(0.000000,66.000000) scale(0.100000,-0.100000)"
fill="#000000" stroke="none">
<path d="M140 625 l0 -35 -71 0 -72 0 7 -72 c11 -123 80 -228 151 -228 12 0
32 -11 45 -25 13 -13 43 -32 67 -41 l43 -17 0 -63 c0 -60 -2 -64 -25 -70 -24
-6 -65 -47 -65 -65 0 -5 50 -9 110 -9 61 0 110 3 110 8 0 18 -31 50 -60 62
-29 12 -30 15 -30 75 l0 62 43 17 c24 9 54 28 67 41 13 14 33 25 45 25 71 0
140 105 151 228 l7 72 -72 0 -71 0 0 35 0 35 -190 0 -190 0 0 -35z m0 -157 c0
-51 3 -104 7 -116 6 -24 6 -24 -25 -8 -41 21 -73 84 -79 158 l-6 58 52 0 51 0
0 -92z m477 34 c-6 -74 -38 -137 -79 -158 l-31 -16 7 32 c3 18 6 70 6 116 l0
84 51 0 52 0 -6 -58z"/>
</g>
</svg>
