<?xml version="1.0" standalone="no"?>
<!DOCTYPE svg PUBLIC "-//W3C//DTD SVG 20010904//EN"
 "http://www.w3.org/TR/2001/REC-SVG-20010904/DTD/svg10.dtd">
<svg version="1.0" xmlns="http://www.w3.org/2000/svg"
 width="50.000000pt" height="72.000000pt" viewBox="0 0 50.000000 72.000000"
 preserveAspectRatio="xMidYMid meet">

<g transform="translate(0.000000,72.000000) scale(0.100000,-0.100000)"
fill="#000000" stroke="none">
<path d="M95 691 c-44 -27 -62 -51 -74 -99 -17 -60 -4 -95 75 -212 l67 -99 71
102 c65 94 71 106 74 162 2 47 -1 67 -17 93 -43 67 -133 92 -196 53z m109 -82
c49 -39 22 -129 -40 -129 -37 0 -74 37 -74 75 0 36 36 75 70 75 10 0 29 -9 44
-21z"/>
<path d="M287 343 c-16 -16 -4 -23 38 -23 68 0 107 -47 69 -84 -18 -18 -12
-18 -164 -20 -126 -1 -151 -9 -175 -56 -19 -37 -19 -54 0 -95 24 -50 47 -55
250 -55 160 0 184 2 179 15 -5 12 -34 15 -169 15 -207 0 -235 9 -235 77 0 53
25 63 168 63 156 0 191 16 192 88 0 51 -37 82 -98 82 -27 0 -52 -3 -55 -7z"/>
</g>
</svg>
