<?xml version="1.0" standalone="no"?>
<!DOCTYPE svg PUBLIC "-//W3C//DTD SVG 20010904//EN"
 "http://www.w3.org/TR/2001/REC-SVG-20010904/DTD/svg10.dtd">
<svg version="1.0" xmlns="http://www.w3.org/2000/svg"
 width="80.000000pt" height="67.000000pt" viewBox="0 0 80.000000 67.000000"
 preserveAspectRatio="xMidYMid meet">

<g transform="translate(0.000000,67.000000) scale(0.100000,-0.100000)"
fill="#000000" stroke="none">
<path d="M333 602 c-57 -20 -117 -62 -133 -92 -6 -11 -17 -20 -26 -20 -16 0
-36 -41 -25 -52 3 -4 38 -12 76 -17 76 -11 105 -32 105 -76 0 -35 -41 -61
-117 -75 -101 -19 -111 -31 -65 -78 l28 -29 110 13 c60 7 146 21 192 30 86 17
123 14 55 -5 -34 -10 -273 -46 -347 -53 -35 -3 -42 -17 -23 -42 13 -18 18 -18
145 -2 136 17 313 49 370 67 24 8 32 16 32 34 0 13 -4 26 -9 30 -6 3 -3 24 6
51 67 197 -163 391 -374 316z m106 -236 c17 -20 -13 -43 -34 -26 -12 10 -13
16 -4 26 6 8 15 14 19 14 4 0 13 -6 19 -14z"/>
</g>
</svg>
